HIERARCHY
ROOT Hips
{
	OFFSET -3.958830 18.904000 13.208200
	CHANNELS 6 Xposition Yposition Zposition Zrotation Yrotation Xrotation 
	JOINT LHipJoint
	{
		OFFSET 0.000000 0.000000 0.000000
		CHANNELS 3 Zrotation Yrotation Xrotation
		JOINT LeftUpLeg
		{
			OFFSET 1.800000 -1.400000 0.085000
			CHANNELS 3 Zrotation Yrotation Xrotation
			JOINT LeftLeg
			{
				OFFSET 2.215000 -6.000000 0.000000
				CHANNELS 3 Zrotation Yrotation Xrotation
				JOINT LeftFoot
				{
					OFFSET 2.500000 -6.900000 0.000000
					CHANNELS 3 Zrotation Yrotation Xrotation
					JOINT LeftToeBase
					{
						OFFSET 0.200000 -0.500000 1.950000
						CHANNELS 3 Zrotation Yrotation Xrotation
						End Site
						{
							OFFSET 0.000000 0.000000 0.000000
						}
					}
				}
			}
		}
	}
	JOINT RHipJoint
	{
		OFFSET 0.000000 0.000000 0.000000
		CHANNELS 3 Zrotation Yrotation Xrotation
		JOINT RightUpLeg
		{
			OFFSET -1.800000 -1.400000 0.085000
			CHANNELS 3 Zrotation Yrotation Xrotation
			JOINT RightLeg
			{
				OFFSET -2.215000 -6.000000 0.000000
				CHANNELS 3 Zrotation Yrotation Xrotation
				JOINT RightFoot
				{
					OFFSET -2.500000 -6.900000 0.000000
					CHANNELS 3 Zrotation Yrotation Xrotation
					JOINT RightToeBase
					{
						OFFSET -0.200000 -0.500000 1.950000
						CHANNELS 3 Zrotation Yrotation Xrotation
						End Site
						{
							OFFSET 0.000000 0.000000 0.000000
						}
					}
				}
			}
		}
	}
	JOINT LowerBack
	{
		OFFSET 0.000000 0.000000 0.000000
		CHANNELS 3 Zrotation Yrotation Xrotation
		JOINT Spine
		{
			OFFSET -0.087000 1.940000 -0.288900
			CHANNELS 3 Zrotation Yrotation Xrotation
			JOINT Spine1
			{
				OFFSET 0.000000 1.950000 0.060000
				CHANNELS 3 Zrotation Yrotation Xrotation
				JOINT Neck
				{
					OFFSET 0.000000 0.000000 0.000000
					CHANNELS 3 Zrotation Yrotation Xrotation
					JOINT Neck1
					{
						OFFSET 0.000000 1.600000 0.340000
						CHANNELS 3 Zrotation Yrotation Xrotation
						JOINT Head
						{
							OFFSET 0.000000 1.667000 -0.240000
							CHANNELS 3 Zrotation Yrotation Xrotation
							End Site
							{
								OFFSET 0.000000 0.000000 0.000000
							}
						}
					}
				}
				JOINT LeftShoulder
				{
					OFFSET 0.000000 0.000000 0.000000
					CHANNELS 3 Zrotation Yrotation Xrotation
					JOINT LeftArm
					{
						OFFSET 2.700000 1.550000 -0.730000
						CHANNELS 3 Zrotation Yrotation Xrotation
						JOINT LeftForeArm
						{
							OFFSET 5.450000 0.000000 0.000000
							CHANNELS 3 Zrotation Yrotation Xrotation
							JOINT LeftHand
							{
								OFFSET 3.450000 0.000000 0.000000
								CHANNELS 3 Zrotation Yrotation Xrotation
								JOINT LeftHandIndex1
								{
									OFFSET 0.750000 0.000000 0.000000
									CHANNELS 3 Zrotation Yrotation Xrotation
									End Site
									{
										OFFSET 0.000000 0.000000 0.000000
									}
								}
							}
						}
					}
				}
				JOINT RightShoulder
				{
					OFFSET 0.000000 0.000000 0.000000
					CHANNELS 3 Zrotation Yrotation Xrotation
					JOINT RightArm
					{
						OFFSET -2.700000 1.550000 -0.730000
						CHANNELS 3 Zrotation Yrotation Xrotation
						JOINT RightForeArm
						{
							OFFSET -5.450000 0.000000 0.000000
							CHANNELS 3 Zrotation Yrotation Xrotation
							JOINT RightHand
							{
								OFFSET -3.450000 0.000000 0.000000
								CHANNELS 3 Zrotation Yrotation Xrotation
								JOINT RightHandIndex1
								{
									OFFSET -0.750000 0.000000 0.000000
									CHANNELS 3 Zrotation Yrotation Xrotation
									End Site
									{
										OFFSET 0.000000 0.000000 0.000000
									}
								}
							}
						}
					}
				}
			}
		}
	}
}
MOTION
Frames: 14
Frame Time: 0.016667
2.063420 17.423860 -1.976780 14.263021 -33.661377 -15.273087 -15.348687 11.344347 5.891323 -19.038343 -11.647349 -50.160641 1.527363 4.301394 28.593041 -0.388958 3.755412 3.262380 0.515810 0.105890 0.590840 18.268359 -10.161193 2.496631 -7.148180 7.391528 -4.238703 14.537735 -11.674289 39.069542 -1.076312 -7.572600 1.646933 0.071490 0.169920 0.427750 -3.396215 -1.024243 -8.575714 16.606701 7.545381 48.266762 2.705544 12.627480 14.662640 3.170635 -2.846222 -7.005780 -5.799034 -2.018137 43.058514 -7.676160 -2.696980 -6.821660 -8.119171 4.140236 -0.185198 -7.231717 14.948328 -5.829773 22.891531 -51.824441 -9.503307 -3.687032 3.655692 0.410210 0.084810 0.107710 0.190630 -0.433056 7.730720 3.551745 2.098478 17.064708 -9.100838 -110.324026 28.810330 -46.752335 2.267892 -1.850618 -0.047350 0.045560 -0.171800 -0.109550 
2.084410 17.380880 -1.970630 14.939215 -33.749366 -14.898185 -15.341577 11.428840 5.755957 -19.620686 -10.967402 -48.526008 0.032744 3.615442 20.471309 -0.587908 2.527642 3.703717 0.600640 0.225840 0.634470 18.255372 -10.246621 2.510122 -6.383098 6.885340 -4.313113 13.795901 -10.940351 37.833890 -1.060635 -7.257112 1.745798 0.132720 0.132170 0.438600 -3.365837 -1.017852 -8.507492 15.732567 8.672984 47.092401 3.609442 13.218043 15.358266 2.883679 -2.405415 -6.367350 -5.408047 -2.782154 43.950550 -7.068180 -3.593320 -9.559830 -8.457996 4.621206 -0.845555 -6.136151 13.461041 -5.607657 23.447498 -51.540526 -9.663418 -3.675285 3.659487 0.424910 0.054740 0.164380 0.212390 0.208217 6.995507 3.290575 1.918461 16.800774 -8.638161 -111.885739 29.487821 -48.608073 2.245657 -1.836384 -0.009710 0.068460 -0.211170 -0.097110 
2.142580 17.235330 -1.959430 15.788914 -32.318964 -12.279424 -15.419327 11.457567 5.662596 -20.723733 -10.799185 -46.317972 -4.577437 2.610457 5.228348 -0.753224 1.393500 4.151215 0.621160 0.292070 0.606230 18.200671 -10.231587 2.425055 -4.464142 5.241371 -5.163321 12.162357 -9.439968 34.047226 -0.912820 -6.452821 2.044777 0.160930 0.145600 0.445010 -3.126749 -1.199909 -8.522479 12.673029 10.665091 42.491478 6.007391 13.715090 16.071861 2.314230 -1.413307 -6.304795 -4.516351 -4.082591 45.710058 -7.145520 -4.623680 -10.038850 -8.329128 4.001897 -0.873920 -5.151722 13.330134 -5.597593 28.425867 -51.891376 -11.689611 -3.703499 3.560047 0.401840 0.071470 0.181970 0.237720 1.397407 6.943686 3.501592 1.369719 15.571512 -7.583903 -114.966778 30.930355 -52.491149 2.202696 -1.797369 0.018730 0.099800 -0.215530 -0.066190 
2.236650 17.095910 -1.940550 14.306554 -31.152514 -9.915302 -15.266004 11.333071 5.513152 -19.508152 -9.770614 -45.379428 -9.585113 1.988993 -4.835759 -0.712893 1.618108 4.110363 0.581930 0.226610 0.576570 18.325320 -10.540369 2.536034 -1.250442 3.184636 -4.243288 10.118293 -8.060352 29.352269 -0.781846 -5.692284 2.322604 0.134390 0.173800 0.419680 -3.580878 -0.415580 -8.515991 15.608484 9.641374 40.417179 4.642221 13.433552 15.843857 2.132531 -1.482617 -6.849358 -4.779812 -4.560510 46.781575 -5.878750 -5.803350 -9.095520 -7.861648 3.321131 -1.013627 -4.337432 12.411649 -5.556045 33.541045 -52.064093 -13.671334 -3.715179 3.460883 0.418240 0.064140 0.150520 0.230080 1.532895 6.820278 4.415283 3.538373 14.010865 -6.715221 -119.121671 31.871930 -58.179402 2.201038 -1.777041 -0.015930 0.120740 -0.188080 -0.068640 
2.331970 16.960080 -1.903180 14.388133 -31.818668 -9.511006 -15.211297 11.336629 5.470807 -18.148512 -9.051757 -46.099804 -11.124734 1.814275 -6.824220 -0.654952 1.756419 4.074385 0.634230 0.301110 0.576260 18.361360 -10.718673 2.527189 -0.094478 1.526834 -2.481623 7.145917 -6.832978 25.802961 -0.717474 -5.194604 2.520196 0.175600 0.179450 0.411590 -3.707461 -0.173484 -8.449694 15.852349 9.879357 39.716405 4.351434 13.750533 15.580668 1.642691 -2.497282 -6.290545 -6.627819 -4.023332 46.305677 -5.104540 -6.305770 -9.603140 -7.937586 4.506637 -1.719046 -3.977244 11.668719 -5.357514 40.931582 -52.740586 -16.825211 -3.748858 3.423987 0.398870 0.057550 0.155900 0.279030 2.326653 6.446343 4.324643 3.523464 14.790216 -5.451642 -121.168394 35.056863 -64.559043 2.198734 -1.755702 0.000230 0.130750 -0.235590 -0.040270 
2.435670 16.857340 -1.898740 14.347259 -32.016861 -9.079142 -15.148771 11.290999 5.547072 -17.363122 -9.108270 -48.827372 -8.325926 2.475658 -0.565348 -0.700417 1.567537 4.135806 0.576830 0.224950 0.540010 18.406088 -10.912196 2.557657 0.786783 0.428603 -1.947306 4.142085 -5.848125 23.398444 -0.622694 -4.815741 2.649985 0.136380 0.216880 0.412240 -3.858225 0.178582 -8.383534 16.721190 9.969430 40.641548 3.001568 14.761710 14.165146 1.405174 -2.460228 -6.242872 -6.240227 -4.594793 44.485702 -4.334340 -6.817520 -8.627270 -8.028629 5.044639 -2.398105 -4.333904 9.719772 -5.339053 52.465946 -53.138641 -22.071497 -3.851025 3.281596 0.380160 0.074530 0.120610 0.266710 2.720215 6.012926 5.127383 6.435828 13.409170 -4.871251 -124.563292 37.749499 -73.595657 2.220084 -1.736213 -0.017430 0.122450 -0.206310 -0.033400 
2.545060 16.807830 -1.890800 10.830698 -31.318436 -8.263799 -14.937331 11.170135 5.496131 -15.423620 -8.355896 -51.559273 -3.213144 3.380625 11.898840 -0.629147 1.894179 3.981927 0.464170 0.066670 0.470560 18.584752 -11.172405 2.880530 4.027852 -0.365130 -0.837195 2.519609 -5.522310 22.446655 -0.607127 -4.772463 2.678920 0.026860 0.236030 0.422820 -4.482701 1.058081 -8.303865 23.534887 6.480372 43.607312 -1.544210 14.442283 12.010509 1.854987 -3.541481 -7.222053 -7.219558 -3.938124 42.520555 -4.795380 -6.161950 -6.473660 -7.463659 5.265754 -2.498548 -7.260696 8.309535 -5.786325 67.118463 -53.270038 -29.561547 -3.933370 3.103815 0.373160 0.090610 0.071170 0.225200 1.385497 5.991521 6.761796 12.513618 12.262266 -4.687847 -128.069897 40.368057 -84.759468 2.259855 -1.732889 -0.026950 0.059510 -0.143490 -0.044360 
2.622050 16.810920 -1.882690 7.619551 -32.130397 -7.396386 -14.800724 11.232873 5.263784 -10.575091 -6.563676 -52.393402 -1.514338 4.432843 22.579860 -0.391864 3.197954 3.481837 0.395460 -0.039890 0.488480 18.680695 -11.354377 3.131221 6.573701 -0.115246 -1.013237 1.430393 -5.289338 23.952419 -0.621205 -4.831069 2.653126 -0.057960 0.196290 0.400610 -4.849796 1.654629 -8.203649 28.398630 3.516268 45.879158 -5.831887 13.979909 10.143809 2.526681 -4.095124 -8.218339 -7.285488 -2.934199 41.673892 -6.982520 -3.775200 -4.259000 -7.942996 4.988227 -2.110806 -10.082161 9.803778 -6.593497 82.640002 -51.240029 -37.392015 -3.927968 2.946531 0.374730 0.072680 0.061990 0.189330 0.804383 6.602441 8.084263 19.750195 13.302121 -4.212040 -127.534112 47.886538 -96.901310 2.365485 -1.616602 -0.038220 -0.001490 -0.150850 -0.071790 
2.693340 16.843250 -1.890190 5.078687 -33.258487 -5.922879 -14.745587 11.186835 5.167718 -6.137152 -5.306760 -52.960278 0.431434 5.254490 32.016455 -0.080789 4.784902 2.876709 0.351770 -0.095540 0.502010 18.731371 -11.410824 3.272552 7.972056 1.836977 -3.217193 1.916905 -5.564648 28.541264 -0.682598 -5.130514 2.533811 -0.143720 0.149850 0.447350 -5.041248 2.224618 -8.221003 30.831245 1.567268 48.029893 -9.853690 13.583205 7.055538 3.087491 -3.440250 -8.635110 -4.550883 -2.227228 40.108457 -9.299030 -0.230540 -3.380580 -7.536657 6.320923 -1.740254 -15.470164 11.256845 -7.825214 99.514910 -48.640098 -47.179242 -3.926671 2.901955 0.358160 0.074070 0.093790 0.165060 -0.507772 5.768607 8.883275 31.543192 16.990791 -2.456984 -122.354689 57.653483 -104.000289 2.510528 -1.295918 0.013710 -0.104800 -0.164160 -0.078380 
2.737450 16.860510 -1.854950 3.571990 -33.215116 -2.653235 -14.718446 10.874670 5.234557 -3.078403 -5.304025 -53.553379 1.835447 5.787552 38.671315 0.159585 6.009400 2.422780 0.306710 -0.131680 0.475430 18.806051 -11.246823 3.396870 6.633361 6.222138 -8.897984 6.791483 -7.608744 35.184182 -0.804168 -5.841281 2.285524 -0.205740 0.118180 0.444500 -5.270670 2.766642 -8.456340 32.238399 1.165668 45.845065 -12.438564 13.075549 4.759518 2.653929 -2.997116 -9.200378 -3.520436 -1.855845 41.814499 -8.956920 1.003710 -2.511560 -6.207136 7.559606 -0.148906 -22.759393 9.558857 -7.050585 113.012087 -44.809930 -58.204996 -3.771233 2.990172 0.374760 0.053550 0.123620 0.146940 -0.865333 4.450233 8.691475 44.062591 17.995231 -0.240800 -107.583800 70.037047 -94.889662 2.639761 1.483919 0.037730 -0.138150 -0.156570 -0.078700 
2.762870 16.892300 -1.829350 2.910639 -32.891636 0.134366 -14.781685 10.757615 5.098012 -0.232309 -5.006975 -52.686274 2.717820 6.518239 43.464384 0.413354 6.880406 2.070664 0.360600 -0.034360 0.476490 18.802135 -10.690395 3.721532 2.027254 11.535573 -15.898292 14.621797 -11.687021 41.620380 -1.137549 -7.216737 1.794972 -0.222180 0.021910 0.473190 -5.235217 2.460204 -8.727687 31.551895 1.556787 44.372195 -13.263078 12.899673 2.033954 2.263420 -3.328253 -9.452695 -4.730817 -1.759860 43.412317 -7.220110 0.611700 -3.624880 -7.349896 7.694692 1.341670 -28.850744 8.618018 -6.070498 123.504355 -41.546456 -70.125462 -3.579161 3.290450 0.381730 -0.014300 0.209920 0.158500 0.796076 4.353588 7.365529 48.849068 14.544206 -9.937778 3.591606 84.826736 -3.920956 2.168838 -1.944112 0.144600 -0.221180 -0.206000 -0.048100 
2.806880 16.878420 -1.798670 2.717514 -30.834272 4.453985 -14.906676 10.387932 5.185172 1.042635 -6.076271 -53.879151 3.071412 7.183815 47.213268 0.603499 7.627197 1.833152 0.309230 -0.064560 0.419820 18.808696 -9.789707 4.213513 -3.625780 15.359063 -24.772155 23.008106 -16.739956 45.216287 -1.475123 -8.672845 1.345244 -0.265880 0.037030 0.450650 -5.106730 1.790223 -9.175579 29.256427 2.069243 40.019980 -11.989364 11.654030 -0.759574 1.697306 -4.175460 -9.586832 -6.926488 -1.093455 44.598885 -6.603840 0.448070 -1.890070 -7.582530 9.216620 2.527937 -37.658230 8.304283 -5.255819 130.840296 -39.328862 -79.304656 -3.501998 3.413495 0.373310 -0.012040 0.211440 0.162810 2.052965 2.949746 6.058495 53.840467 14.217311 -8.806035 12.895084 67.915065 4.218047 2.293195 -1.881010 0.150890 -0.209170 -0.192510 -0.027110 
2.827840 16.865020 -1.783290 2.362769 -27.400364 8.075389 -14.920761 10.113714 5.117785 2.418898 -7.007335 -53.187273 2.764231 7.366768 47.500865 0.576014 7.740209 1.819288 0.269740 -0.123180 0.368550 18.891409 -9.198528 4.637459 -7.978955 16.451866 -32.371551 28.264896 -21.157670 47.841493 -1.768918 -9.861805 1.003858 -0.282650 0.098060 0.417770 -5.195632 1.352662 -9.401965 28.707278 0.767267 34.732811 -11.786721 9.263554 -2.239399 1.127636 -5.710751 -9.032748 -10.704394 0.184807 46.008569 -4.097010 -0.989070 -1.216160 -8.727021 10.773256 3.249923 -45.780442 6.391574 -3.460724 137.858722 -38.009088 -91.407957 -3.461002 3.467571 0.417800 -0.009630 0.180770 0.166860 4.263380 0.936416 4.002472 58.343891 14.412184 -7.298747 8.749487 50.341005 2.001941 2.370505 -1.624032 0.096320 -0.140710 -0.146410 -0.030120 
2.839480 16.813800 -1.741330 1.009755 -24.712293 10.812627 -14.896325 10.059079 4.691472 5.022282 -6.265798 -50.557125 2.522030 7.555666 45.661395 0.487100 7.512616 1.896674 0.230180 -0.172190 0.309350 18.977602 -8.734642 5.152675 -12.285495 16.974752 -38.878717 34.910574 -27.405443 50.954753 -2.204312 -11.486886 0.567519 -0.295430 0.148940 0.403180 -5.318225 0.975369 -9.492320 29.553844 -0.354896 30.664481 -12.130251 7.797648 -3.404441 0.905503 -6.332410 -8.518364 -12.651289 0.421230 45.576203 -1.717060 -2.271510 -0.455850 -9.762154 12.206423 3.496529 -51.914283 5.203578 -1.288380 144.979799 -39.973031 -109.873999 -3.430489 3.591886 0.432500 0.003870 0.147250 0.168900 5.592405 -1.357886 2.508082 61.887196 12.329123 -6.621234 6.637582 37.021872 0.864723 2.460638 -1.468276 0.061730 -0.112810 -0.105960 -0.026560 
